<svg width="45" height="45" viewBox="0 0 45 45" fill="none" xmlns="http://www.w3.org/2000/svg">
<path d="M21.2599 2.43683L10.0333 14.7121C9.34829 15.4611 9.34829 16.6757 10.0333 17.4247C10.7184 18.1738 11.829 18.1738 12.5141 17.4247L20.7461 8.42364V41.207C20.7461 42.2662 21.5316 43.125 22.5003 43.125C23.4689 43.125 24.2544 42.2662 24.2544 41.207V8.42364L32.4865 17.4244C33.1716 18.1735 34.2822 18.1735 34.9673 17.4244C35.3096 17.05 35.4811 16.5589 35.4811 16.0681C35.4811 15.5772 35.3096 15.0864 34.9673 14.7118L23.7407 2.43683C23.0556 1.68773 21.945 1.68773 21.2599 2.43683Z" fill="#1B1F2B"/>
</svg>
