<svg width="45" height="45" viewBox="0 0 45 45" fill="none" xmlns="http://www.w3.org/2000/svg">
<path d="M23.7401 42.5632L34.9667 30.2879C35.6517 29.5389 35.6517 28.3243 34.9667 27.5753C34.2816 26.8262 33.171 26.8262 32.4859 27.5753L24.2539 36.5764L24.2539 3.79302C24.2539 2.73381 23.4684 1.875 22.4997 1.875C21.5311 1.875 20.7456 2.73381 20.7456 3.79302L20.7456 36.5764L12.5135 27.5756C11.8284 26.8265 10.7178 26.8265 10.0327 27.5756C9.69042 27.95 9.51893 28.4411 9.51893 28.9319C9.51893 29.4228 9.69042 29.9136 10.0327 30.2882L21.2593 42.5632C21.9444 43.3123 23.055 43.3123 23.7401 42.5632Z" fill="#1B1F2B"/>
</svg>
