<svg width="12" height="13" viewBox="0 0 12 13" fill="none" xmlns="http://www.w3.org/2000/svg">
<g clip-path="url(#clip0_92_11)">
<path d="M7.5 12.5L4.5 10.25V7.69L0.5 3.19V2C0.5 1.60218 0.658035 1.22064 0.93934 0.93934C1.22064 0.658035 1.60218 0.5 2 0.5L10 0.5C10.3978 0.5 10.7794 0.658035 11.0607 0.93934C11.342 1.22064 11.5 1.60218 11.5 2V3.19L7.5 7.69V12.5ZM5.5 9.75L6.5 10.5V7.31L10.5 2.81V2C10.5 1.86739 10.4473 1.74021 10.3536 1.64645C10.2598 1.55268 10.1326 1.5 10 1.5H2C1.86739 1.5 1.74021 1.55268 1.64645 1.64645C1.55268 1.74021 1.5 1.86739 1.5 2V2.81L5.5 7.31V9.75Z" fill="white"/>
</g>
<defs>
<clipPath id="clip0_92_11">
<rect width="12" height="12" fill="white" transform="translate(0 0.5)"/>
</clipPath>
</defs>
</svg>
