<svg width="24" height="24" viewBox="0 0 24 24" fill="none" xmlns="http://www.w3.org/2000/svg">
<path d="M10.0799 1.44043C5.56867 1.44043 1.91992 5.08918 1.91992 9.60043C1.91992 14.1117 5.56867 17.7604 10.0799 17.7604C11.6905 17.7604 13.1812 17.2879 14.4449 16.4854L20.3399 22.3804L22.3799 20.3404L16.5599 14.5354C17.6062 13.1629 18.2399 11.4623 18.2399 9.60043C18.2399 5.08918 14.5912 1.44043 10.0799 1.44043ZM10.0799 3.36043C13.5355 3.36043 16.3199 6.1448 16.3199 9.60043C16.3199 13.0561 13.5355 15.8404 10.0799 15.8404C6.6243 15.8404 3.83992 13.0561 3.83992 9.60043C3.83992 6.1448 6.6243 3.36043 10.0799 3.36043Z" fill="#020B18"/>
</svg>
