<svg width="45" height="45" viewBox="0 0 45 45" fill="none" xmlns="http://www.w3.org/2000/svg">
<g clip-path="url(#clip0_235_289)">
<path fill-rule="evenodd" clip-rule="evenodd" d="M3.16325 3.16325C0 6.32649 0 11.4176 0 21.6V23.4C0 33.5824 0 38.6735 3.16325 41.8368C6.32649 45 11.4176 45 21.6 45H23.4C33.5824 45 38.6735 45 41.8368 41.8368C45 38.6735 45 33.5824 45 23.4V21.6C45 11.4176 45 6.32649 41.8368 3.16325C38.6735 0 33.5824 0 23.4 0H21.6C11.4176 0 6.32649 0 3.16325 3.16325ZM7.59386 13.6876C7.83761 25.3876 13.6876 32.4188 23.9438 32.4188H24.5252V25.7251C28.2939 26.1001 31.1437 28.8563 32.2875 32.4188H37.6126C36.1501 27.0938 32.3062 24.1501 29.9062 23.0251C32.3062 21.6376 35.6812 18.2626 36.4874 13.6876H31.6498C30.5998 17.4001 27.4877 20.7751 24.5252 21.0938V13.6876H19.6875V26.6626C16.6875 25.9126 12.9001 22.2751 12.7313 13.6876H7.59386Z" fill="#B1B8C2"/>
</g>
<defs>
<clipPath id="clip0_235_289">
<rect width="45" height="45" fill="white"/>
</clipPath>
</defs>
</svg>
