<svg width="45" height="45" viewBox="0 0 45 45" fill="none" xmlns="http://www.w3.org/2000/svg">
<path d="M22.5008 1.7998C11.081 1.7998 1.80078 11.08 1.80078 22.4998C1.80078 33.9196 11.081 43.1998 22.5008 43.1998C33.9206 43.1998 43.2008 33.9196 43.2008 22.4998C43.2008 11.08 33.9206 1.7998 22.5008 1.7998ZM22.5008 3.5998C32.9474 3.5998 41.4008 12.0532 41.4008 22.4998C41.4008 22.564 41.3961 22.6273 41.3955 22.6914C40.8199 22.6383 40.1547 22.5878 39.309 22.5578C38.1131 22.5154 36.6058 22.5277 34.8969 22.6123C34.9602 22.171 35.0047 21.7234 35.0059 21.2641C35.093 19.5787 34.5271 18.002 33.6066 16.6094C33.829 15.841 34.0899 14.8635 34.1551 13.7547C34.2294 12.4908 34.1203 11.0894 33.1057 10.1424L32.8455 9.89981H32.4904C30.0757 9.89981 28.4228 10.9107 27.4121 11.7121C25.9528 11.1472 24.3118 10.7998 22.5008 10.7998C20.6795 10.7998 19.0228 11.1521 17.5033 11.7156C16.4932 10.9138 14.8389 9.89981 12.4215 9.89981H12.0682L11.808 10.1406C10.8196 11.0584 10.7286 12.4214 10.7902 13.6791C10.8446 14.7882 11.0903 15.7967 11.3088 16.6023C10.3728 18.0222 9.81113 19.6396 9.81113 21.2395C9.81113 21.6999 9.85395 22.1489 9.9166 22.5912C8.29142 22.5158 6.84267 22.5013 5.69258 22.542C4.84684 22.5719 4.18168 22.6219 3.60605 22.6756C3.60552 22.6168 3.60078 22.5587 3.60078 22.4998C3.60078 12.0532 12.0542 3.5998 22.5008 3.5998ZM12.9576 11.8176C14.7734 11.9896 16.1396 12.8005 16.7721 13.3627L17.1939 13.7354L17.7143 13.5227C19.1376 12.9366 20.7251 12.5998 22.5008 12.5998C24.2765 12.5998 25.8644 12.9383 27.1801 13.5139L27.7074 13.7459L28.1381 13.3627C28.7708 12.8003 30.1392 11.9892 31.9561 11.8176C32.1976 12.2181 32.4075 12.7876 32.3568 13.6492C32.2962 14.6804 32.0204 15.8035 31.8119 16.4705L31.6766 16.9047L31.9455 17.2721C32.836 18.4864 33.2901 19.8006 33.2129 21.1902L33.2111 21.2148V21.2395C33.2111 23.4854 32.4024 25.2829 30.6799 26.6148C28.9574 27.9468 26.2382 28.7998 22.4111 28.7998C18.5841 28.7998 15.8631 27.9468 14.1406 26.6148C12.4181 25.2829 11.6111 23.4854 11.6111 21.2395C11.6111 19.9212 12.0872 18.471 12.9664 17.2721L13.2301 16.9135L13.1035 16.4863C12.895 15.7772 12.6393 14.6285 12.5885 13.5912C12.5462 12.7285 12.7504 12.1831 12.9576 11.8176ZM7.99707 23.4191C8.63309 23.4273 9.3621 23.4616 10.0924 23.4982C10.1622 23.7789 10.2417 24.0549 10.3385 24.3244C7.36186 24.3872 5.13504 24.6865 3.7625 24.9432C3.70447 24.4928 3.65824 24.0388 3.63242 23.5791C4.64677 23.4828 6.07668 23.3946 7.99707 23.4191ZM37.0045 23.4332C38.9236 23.4088 40.3529 23.4971 41.3674 23.5932C41.3416 24.0463 41.2962 24.4939 41.2391 24.9379C39.8175 24.6771 37.5305 24.3778 34.4768 24.3297C34.5715 24.0655 34.6504 23.7942 34.7193 23.5193C35.5249 23.4762 36.3109 23.442 37.0045 23.4332ZM10.7217 25.2174C11.2587 26.2936 12.0261 27.2545 13.0402 28.0387C14.4267 29.1108 16.2292 29.8599 18.4297 30.2605C18.1418 30.5563 17.88 30.8811 17.6475 31.2238L17.593 31.1764C17.5979 31.1707 17.1456 31.3971 16.4697 31.4576C15.7939 31.5181 14.9602 31.4998 14.2215 31.4998C13.119 31.4998 12.6334 30.9789 11.8572 30.0303C11.4274 29.451 10.9035 28.9819 10.3947 28.6258C9.8738 28.2611 9.42941 28.0038 8.87949 27.9121L8.80566 27.8998H8.73008C8.31008 27.8998 7.90367 27.9302 7.52422 28.3639C7.3345 28.5807 7.20373 28.9821 7.28867 29.3219C7.37361 29.6616 7.58855 29.8704 7.78086 29.9986C9.01091 30.8187 9.2283 32.4417 9.99922 33.8852C10.7191 35.3197 12.2729 35.9998 13.8611 35.9998H16.2008V40.3223C9.87181 38.0883 5.09899 32.584 3.89961 25.8326C5.27742 25.5731 7.58467 25.2611 10.7217 25.2174ZM34.0953 25.2244C37.3018 25.2519 39.6737 25.5635 41.1037 25.8273C39.9059 32.5812 35.1314 38.0877 28.8008 40.3223V35.6395C28.8008 34.2133 28.3325 32.6407 27.5176 31.3293C27.2702 30.9311 26.9791 30.5546 26.6545 30.2166C28.7382 29.805 30.4499 29.0687 31.782 28.0387C32.7939 27.2562 33.5596 26.2982 34.0953 25.2244ZM21.3301 30.6895H23.8508C24.5823 30.6895 25.3632 31.2725 25.9883 32.2785C26.6134 33.2846 27.0008 34.6356 27.0008 35.6395V40.8584C25.5584 41.2101 24.0522 41.3998 22.5008 41.3998C20.9494 41.3998 19.4431 41.2101 18.0008 40.8584V35.6395C18.0008 34.6578 18.4218 33.31 19.0889 32.2996C19.7559 31.2892 20.5985 30.6895 21.3301 30.6895ZM11.0785 31.7529C11.8577 32.5611 12.8011 33.2998 14.2215 33.2998C14.9227 33.2998 15.798 33.3251 16.6297 33.2506C16.6326 33.2503 16.6355 33.2491 16.6385 33.2488C16.5289 33.5638 16.4472 33.8808 16.3783 34.1998H13.8611C12.7511 34.1998 11.967 33.7988 11.6059 33.0766L11.5988 33.0643L11.5936 33.0537C11.4456 32.7789 11.2514 32.2293 11.0785 31.7529Z" fill="#B1B8C2"/>
</svg>
