<svg width="512" height="376" viewBox="0 0 512 376" fill="none" xmlns="http://www.w3.org/2000/svg">
<path d="M435.195 7.68408H76.8042C56.2192 7.68408 39.5322 24.3711 39.5322 44.9561V339.198H472.466V44.9561C472.466 24.3711 455.779 7.68408 435.195 7.68408Z" fill="#D2D2D2"/>
<path d="M428.784 51.366H83.2139V266.396H428.784V51.366Z" fill="#3C6CB0"/>
<path d="M341.538 310.074H488.629C493.007 310.074 496.977 311.85 499.85 314.724C502.723 317.597 504.5 321.567 504.5 325.955C504.5 349.349 485.532 368.317 462.138 368.317H49.861C38.164 368.317 27.574 363.58 19.905 355.911C12.237 348.242 7.5 337.651 7.5 325.954C7.5 317.179 14.606 310.073 23.371 310.073H170.462L256 324.634L341.538 310.074Z" fill="#B8B8B8"/>
<path d="M341.538 310.074C339.684 326.469 325.784 339.195 308.903 339.195H203.096C186.215 339.195 172.315 326.469 170.461 310.074H341.538Z" fill="#EFEDEE"/>
<path d="M152.627 266.396C152.627 270.538 155.985 273.896 160.127 273.896H428.785C432.927 273.896 436.285 270.538 436.285 266.396V51.366C436.285 47.224 432.927 43.866 428.785 43.866H83.2148C79.0728 43.866 75.7148 47.224 75.7148 51.366V266.396C75.7148 270.538 79.0728 273.896 83.2148 273.896H130.127C134.269 273.896 137.627 270.538 137.627 266.396C137.627 262.254 134.269 258.896 130.127 258.896H90.7148V58.866H421.285V258.896H160.127C155.985 258.896 152.627 262.254 152.627 266.396Z" fill="black"/>
<path d="M172.254 165.406V148.892C172.254 144.749 168.896 141.392 164.754 141.392C160.612 141.392 157.254 144.749 157.254 148.892V165.406C157.254 169.548 160.612 172.906 164.754 172.906C168.896 172.906 172.254 169.548 172.254 165.406Z" fill="black"/>
<path d="M354.746 165.406V148.892C354.746 144.749 351.388 141.392 347.246 141.392C343.104 141.392 339.746 144.749 339.746 148.892V165.406C339.746 169.548 343.104 172.906 347.246 172.906C351.388 172.906 354.746 169.548 354.746 165.406Z" fill="black"/>
<path d="M256 181.72C266.941 181.72 277.208 177.154 284.167 169.192C286.893 166.074 286.575 161.336 283.457 158.609C280.338 155.883 275.6 156.201 272.874 159.32C268.763 164.023 262.612 166.72 255.999 166.72C249.386 166.72 243.235 164.023 239.125 159.32C236.398 156.201 231.661 155.883 228.542 158.609C225.423 161.335 225.105 166.073 227.831 169.192C234.792 177.154 245.058 181.72 256 181.72Z" fill="black"/>
<path d="M256 37.6301C259.932 37.6301 263.119 34.4428 263.119 30.5111C263.119 26.5794 259.932 23.3921 256 23.3921C252.068 23.3921 248.881 26.5794 248.881 30.5111C248.881 34.4428 252.068 37.6301 256 37.6301Z" fill="black"/>
<path d="M505.154 309.42C500.739 305.005 494.87 302.573 488.629 302.573H479.967V44.9561C479.967 20.2691 459.883 0.185059 435.196 0.185059H392.794C388.652 0.185059 385.294 3.54306 385.294 7.68506C385.294 11.8271 388.652 15.1851 392.794 15.1851H435.196C451.612 15.1851 464.967 28.5401 464.967 44.9561V302.574H47.033V44.9561C47.033 28.5401 60.388 15.1851 76.804 15.1851H362.793C366.935 15.1851 370.293 11.8271 370.293 7.68506C370.293 3.54306 366.935 0.185059 362.793 0.185059H76.805C52.118 0.185059 32.034 20.2691 32.034 44.9561V302.574H23.372C10.484 302.573 0 313.062 0 325.954C0 339.274 5.186 351.796 14.603 361.214C24.019 370.63 36.541 375.816 49.862 375.816H462.139C489.633 375.816 512 353.448 512 325.955C512 319.707 509.569 313.835 505.154 309.42ZM331.163 318.483C328.572 323.242 324.38 327.143 319.431 329.4C316.14 330.9 312.521 331.695 308.904 331.695H203.097C199.267 331.695 195.401 330.793 191.96 329.115C186.952 326.673 182.834 322.573 180.379 317.574H331.623C331.567 317.686 331.265 318.295 331.163 318.483ZM462.139 360.816H49.862C40.548 360.816 31.792 357.191 25.21 350.608C18.625 344.024 15 335.268 15 325.954C15 321.333 18.755 317.573 23.371 317.573H164.332C164.37 317.706 164.415 317.835 164.454 317.968C166.348 324.3 169.847 330.147 174.507 334.83C179.094 339.44 184.767 342.855 190.957 344.83C194.836 346.068 198.932 346.692 203.003 346.692C203.034 346.692 203.065 346.694 203.096 346.694H308.903C308.934 346.694 308.965 346.692 308.996 346.692C315.85 346.675 323.205 344.968 329.069 341.303C334.603 338.117 339.228 333.643 342.752 328.333C344.939 325.038 346.579 321.372 347.669 317.573C347.669 317.573 488.603 317.573 488.629 317.573C493.2 317.573 497 321.392 497 325.954C497 345.177 481.361 360.816 462.139 360.816Z" fill="black"/>
</svg>
